<svg xmlns="http://www.w3.org/2000/svg" viewBox="0 0 512 512" width="32" height="32">
  <!-- Robot body base -->
  <ellipse cx="256" cy="380" rx="120" ry="80" fill="#e74c3c"/>
  
  <!-- Robot chest -->
  <ellipse cx="256" cy="320" rx="80" ry="40" fill="#34495e"/>
  
  <!-- Robot head -->
  <rect x="200" y="120" width="112" height="120" rx="56" ry="56" fill="#ecf0f1" stroke="#bdc3c7" stroke-width="8"/>
  
  <!-- Robot face/screen -->
  <rect x="220" y="160" width="72" height="40" rx="20" ry="20" fill="#3498db"/>
  
  <!-- Robot eyes -->
  <circle cx="235" cy="180" r="8" fill="white"/>
  <circle cx="277" cy="180" r="8" fill="white"/>
  
  <!-- Robot mouth/speaker -->
  <circle cx="256" cy="320" r="12" fill="white"/>
  
  <!-- Robot antennas -->
  <line x1="230" y1="120" x2="230" y2="80" stroke="#34495e" stroke-width="6" stroke-linecap="round"/>
  <circle cx="230" cy="75" r="8" fill="#f39c12"/>
  
  <line x1="282" y1="120" x2="282" y2="80" stroke="#34495e" stroke-width="6" stroke-linecap="round"/>
  <circle cx="282" cy="75" r="8" fill="#3498db"/>
  
  <!-- Robot arms -->
  <rect x="150" y="240" width="20" height="60" rx="10" ry="10" fill="#e74c3c"/>
  <rect x="342" y="240" width="20" height="60" rx="10" ry="10" fill="#e74c3c"/>
  
  <!-- Robot hands -->
  <circle cx="160" cy="320" r="15" fill="#34495e"/>
  <circle cx="352" cy="320" r="15" fill="#3498db"/>
  
  <!-- Speech bubble -->
  <ellipse cx="350" cy="100" rx="60" ry="30" fill="#9b59b6"/>
  <polygon points="320,120 310,140 330,130" fill="#9b59b6"/>
  
  <!-- Speech bubble dots -->
  <circle cx="335" cy="95" r="4" fill="#34495e"/>
  <circle cx="350" cy="95" r="4" fill="#34495e"/>
  <circle cx="365" cy="95" r="4" fill="#34495e"/>
</svg> 